<svg xmlns="http://www.w3.org/2000/svg" xmlns:xlink="http://www.w3.org/1999/xlink" width="16" height="16" viewBox="0 0 16 16">
  <defs>
    <path id="activity-a" d="M9.75,14.3 C9.49,14.3 9.23,14.105 9.165,13.845 L5.85,4.03 L4.485,8.06 C4.42,8.255 4.16,8.45 3.9,8.45 L1.3,8.45 C0.91,8.45 0.65,8.19 0.65,7.8 C0.65,7.41 0.91,7.15 1.3,7.15 L3.445,7.15 L5.265,1.755 C5.33,1.495 5.59,1.3 5.85,1.3 C6.11,1.3 6.37,1.495 6.435,1.755 L9.75,11.57 L11.115,7.54 C11.18,7.28 11.44,7.085 11.7,7.085 L14.3,7.085 C14.69,7.085 14.95,7.345 14.95,7.735 C14.95,8.125 14.69,8.385 14.3,8.385 L12.155,8.385 L10.335,13.78 C10.27,14.105 10.01,14.3 9.75,14.3 Z"/>
  </defs>
  <use xlink:href="#activity-a"/>
</svg>
