<svg xmlns="http://www.w3.org/2000/svg" xmlns:xlink="http://www.w3.org/1999/xlink" width="16" height="16" viewBox="0 0 16 16">
  <defs>
    <path id="alert-circle-a" d="M7.8,14.95 C3.835,14.95 0.65,11.765 0.65,7.8 C0.65,3.835 3.835,0.65 7.8,0.65 C11.765,0.65 14.95,3.835 14.95,7.8 C14.95,11.765 11.765,14.95 7.8,14.95 Z M7.8,1.95 C4.55,1.95 1.95,4.55 1.95,7.8 C1.95,11.05 4.55,13.65 7.8,13.65 C11.05,13.65 13.65,11.05 13.65,7.8 C13.65,4.55 11.05,1.95 7.8,1.95 Z M8.45,7.8 L8.45,5.2 C8.45,4.81 8.19,4.55 7.8,4.55 C7.41,4.55 7.15,4.81 7.15,5.2 L7.15,7.8 C7.15,8.19 7.41,8.45 7.8,8.45 C8.19,8.45 8.45,8.19 8.45,7.8 Z M8.255,10.855 C8.32,10.79 8.385,10.725 8.385,10.66 C8.385,10.595 8.45,10.465 8.45,10.4 C8.45,10.335 8.45,10.205 8.385,10.14 C8.32,10.075 8.32,10.01 8.255,9.945 C8.255,9.945 8.19,9.88 8.125,9.88 C8.06,9.88 8.06,9.815 7.995,9.815 C7.735,9.685 7.475,9.75 7.28,9.945 C7.215,10.01 7.15,10.075 7.15,10.14 C7.15,10.205 7.085,10.27 7.085,10.4 C7.085,10.595 7.15,10.725 7.28,10.855 C7.41,10.985 7.54,11.05 7.735,11.05 C7.995,11.05 8.125,10.985 8.255,10.855 Z"/>
  </defs>
  <use xlink:href="#alert-circle-a"/>
</svg>
