<svg xmlns="http://www.w3.org/2000/svg" xmlns:xlink="http://www.w3.org/1999/xlink" width="16" height="16" viewBox="0 0 16 16">
  <defs>
    <path id="arrow-right-a" d="M12.9395874,7.5259764 L12.9600538,7.57519321 C12.9640227,7.58598486 12.967696,7.59686069 12.9710734,7.60780815 C12.9714441,7.60885854 12.9719653,7.61056349 12.9724796,7.61227141 L12.9923848,7.70050573 C13.0025384,7.76641467 13.0025384,7.83358533 12.9923848,7.89949427 L12.9724796,7.98772859 C12.9719653,7.98943651 12.9714441,7.99114146 12.970916,7.99284342 C12.967696,8.00313931 12.9640227,8.01401514 12.9600538,8.02480679 C12.9538122,8.04176811 12.947014,8.05807165 12.9395874,8.0740236 L12.931463,8.09091242 C12.9273559,8.09911854 12.9230642,8.10725584 12.918588,8.11531814 C12.9091798,8.13214263 12.8991196,8.14848338 12.8883785,8.16432498 C12.8795575,8.17746268 12.8696682,8.19093875 12.8591945,8.2041026 C12.8476222,8.21858771 12.8358012,8.23223768 12.8234397,8.24537319 C12.8190492,8.25004493 12.8143789,8.25485989 12.8096194,8.25961941 L8.25961941,12.8096194 C8.00577862,13.0634602 7.59422138,13.0634602 7.34038059,12.8096194 C7.0865398,12.5557786 7.0865398,12.1442214 7.34038059,11.8903806 L10.78,8.45 L3.25,8.45 C2.89101491,8.45 2.6,8.15898509 2.6,7.8 C2.6,7.44101491 2.89101491,7.15 3.25,7.15 L10.78,7.15 L7.34038059,3.70961941 C7.0865398,3.45577862 7.0865398,3.04422138 7.34038059,2.79038059 C7.59422138,2.5365398 8.00577862,2.5365398 8.25961941,2.79038059 L12.8096194,7.34038059 L12.8234397,7.35462681 C12.8358012,7.36776232 12.8476222,7.38141229 12.8588671,7.39554118 L12.8096194,7.34038059 C12.8395669,7.3703281 12.8659813,7.40247082 12.8888625,7.43629077 C12.8991196,7.45151662 12.9091798,7.46785737 12.9185172,7.48465523 C12.9230642,7.49274416 12.9273559,7.50088146 12.931463,7.50908758 L12.9395874,7.5259764 L12.9395874,7.5259764 Z"/>
  </defs>
  <use xlink:href="#arrow-right-a"/>
</svg>
