<svg xmlns="http://www.w3.org/2000/svg" xmlns:xlink="http://www.w3.org/1999/xlink" width="16" height="16" viewBox="0 0 16 16">
  <defs>
    <path id="award-a" d="M13,5.18918919 C13,2.33513514 10.66,0 7.8,0 C4.94,0 2.6,2.33513514 2.6,5.18918919 C2.6,6.87567568 3.38,8.36756757 4.615,9.27567568 L3.9,14.8540541 C3.835,15.1135135 3.965,15.372973 4.16,15.5027027 C4.355,15.6324324 4.615,15.6324324 4.875,15.5027027 L7.8,13.7513514 L10.725,15.5027027 C10.79,15.5675676 10.92,15.5675676 11.05,15.5675676 C11.18,15.5675676 11.31,15.5027027 11.375,15.4378378 C11.57,15.3081081 11.7,15.0486486 11.635,14.7891892 L10.92,9.27567568 C12.22,8.36756757 13,6.87567568 13,5.18918919 Z M3.9,5.18918919 C3.9,3.04864865 5.655,1.2972973 7.8,1.2972973 C9.945,1.2972973 11.7,3.04864865 11.7,5.18918919 C11.7,7.32972973 9.945,9.08108108 7.8,9.08108108 C5.655,9.08108108 3.9,7.32972973 3.9,5.18918919 Z M10.205,13.6864865 L8.125,12.4540541 C7.93,12.3243243 7.67,12.3243243 7.475,12.4540541 L5.395,13.6864865 L5.85,9.98918919 C6.435,10.2486486 7.085,10.3783784 7.8,10.3783784 C8.515,10.3783784 9.165,10.2486486 9.75,9.98918919 L10.205,13.6864865 Z"/>
  </defs>
  <use xlink:href="#award-a"/>
</svg>
