<svg xmlns="http://www.w3.org/2000/svg" xmlns:xlink="http://www.w3.org/1999/xlink" width="16" height="16" viewBox="0 0 16 16">
  <defs>
    <path id="briefcase-a" d="M13,3.9 L11.05,3.9 L11.05,3.25 C11.05,2.145 10.205,1.3 9.1,1.3 L6.5,1.3 C5.395,1.3 4.55,2.145 4.55,3.25 L4.55,3.9 L2.6,3.9 C1.495,3.9 0.65,4.745 0.65,5.85 L0.65,12.35 C0.65,13.455 1.495,14.3 2.6,14.3 L13,14.3 C14.105,14.3 14.95,13.455 14.95,12.35 L14.95,5.85 C14.95,4.745 14.105,3.9 13,3.9 Z M5.85,3.25 C5.85,2.86 6.11,2.6 6.5,2.6 L9.1,2.6 C9.49,2.6 9.75,2.86 9.75,3.25 L9.75,3.9 L5.85,3.9 L5.85,3.25 Z M9.75,5.2 L9.75,13 L5.85,13 L5.85,5.2 L9.75,5.2 Z M1.95,12.35 L1.95,5.85 C1.95,5.46 2.21,5.2 2.6,5.2 L4.55,5.2 L4.55,13 L2.6,13 C2.21,13 1.95,12.74 1.95,12.35 Z M13.65,12.35 C13.65,12.74 13.39,13 13,13 L11.05,13 L11.05,5.2 L13,5.2 C13.39,5.2 13.65,5.46 13.65,5.85 L13.65,12.35 Z"/>
  </defs>
  <use xlink:href="#briefcase-a"/>
</svg>
