<svg xmlns="http://www.w3.org/2000/svg" xmlns:xlink="http://www.w3.org/1999/xlink" width="16" height="16" viewBox="0 0 16 16">
  <defs>
    <path id="calendar-a" d="M12.35,1.95 L11.05,1.95 L11.05,1.3 C11.05,0.91 10.79,0.65 10.4,0.65 C10.01,0.65 9.75,0.91 9.75,1.3 L9.75,1.95 L5.85,1.95 L5.85,1.3 C5.85,0.91 5.59,0.65 5.2,0.65 C4.81,0.65 4.55,0.91 4.55,1.3 L4.55,1.95 L3.25,1.95 C2.145,1.95 1.3,2.795 1.3,3.9 L1.3,13 C1.3,14.105 2.145,14.95 3.25,14.95 L12.35,14.95 C13.455,14.95 14.3,14.105 14.3,13 L14.3,3.9 C14.3,2.795 13.455,1.95 12.35,1.95 Z M3.25,3.25 L4.55,3.25 L4.55,3.9 C4.55,4.29 4.81,4.55 5.2,4.55 C5.59,4.55 5.85,4.29 5.85,3.9 L5.85,3.25 L9.75,3.25 L9.75,3.9 C9.75,4.29 10.01,4.55 10.4,4.55 C10.79,4.55 11.05,4.29 11.05,3.9 L11.05,3.25 L12.35,3.25 C12.74,3.25 13,3.51 13,3.9 L13,5.85 L2.6,5.85 L2.6,3.9 C2.6,3.51 2.86,3.25 3.25,3.25 Z M12.35,13.65 L3.25,13.65 C2.86,13.65 2.6,13.39 2.6,13 L2.6,7.15 L13,7.15 L13,13 C13,13.39 12.74,13.65 12.35,13.65 Z"/>
  </defs>
  <use xlink:href="#calendar-a"/>
</svg>
