<svg xmlns="http://www.w3.org/2000/svg" xmlns:xlink="http://www.w3.org/1999/xlink" width="16" height="16" viewBox="0 0 16 16">
  <defs>
    <path id="check-square-a" d="M14.755,2.405 L7.605,9.555 C7.475,9.685 7.345,9.75 7.15,9.75 C6.955,9.75 6.825,9.685 6.695,9.555 L4.745,7.605 C4.485,7.345 4.485,6.955 4.745,6.695 C5.005,6.435 5.395,6.435 5.655,6.695 L7.15,8.19 L13.845,1.495 C14.105,1.235 14.495,1.235 14.755,1.495 C15.015,1.755 15.015,2.145 14.755,2.405 Z M13,7.15 C12.61,7.15 12.35,7.41 12.35,7.8 L12.35,12.35 C12.35,12.74 12.09,13 11.7,13 L2.6,13 C2.21,13 1.95,12.74 1.95,12.35 L1.95,3.25 C1.95,2.86 2.21,2.6 2.6,2.6 L9.75,2.6 C10.14,2.6 10.4,2.34 10.4,1.95 C10.4,1.56 10.14,1.3 9.75,1.3 L2.6,1.3 C1.495,1.3 0.65,2.145 0.65,3.25 L0.65,12.35 C0.65,13.455 1.495,14.3 2.6,14.3 L11.7,14.3 C12.805,14.3 13.65,13.455 13.65,12.35 L13.65,7.8 C13.65,7.41 13.39,7.15 13,7.15 Z"/>
  </defs>
  <use xlink:href="#check-square-a"/>
</svg>
