<svg xmlns="http://www.w3.org/2000/svg" xmlns:xlink="http://www.w3.org/1999/xlink" width="16" height="16" viewBox="0 0 16 16">
  <defs>
    <path id="clock-a" d="M7.8,0.65 C3.835,0.65 0.65,3.835 0.65,7.8 C0.65,11.765 3.835,14.95 7.8,14.95 C11.765,14.95 14.95,11.765 14.95,7.8 C14.95,3.835 11.765,0.65 7.8,0.65 Z M7.8,13.65 C4.55,13.65 1.95,11.05 1.95,7.8 C1.95,4.55 4.55,1.95 7.8,1.95 C11.05,1.95 13.65,4.55 13.65,7.8 C13.65,11.05 11.05,13.65 7.8,13.65 Z M10.205,9.295 C10.465,9.555 10.465,9.945 10.205,10.205 C10.075,10.335 9.945,10.4 9.75,10.4 C9.555,10.4 9.425,10.335 9.295,10.205 L7.345,8.255 C7.215,8.125 7.15,7.995 7.15,7.8 L7.15,3.9 C7.15,3.51 7.41,3.25 7.8,3.25 C8.19,3.25 8.45,3.51 8.45,3.9 L8.45,7.54 L10.205,9.295 Z"/>
  </defs>
  <use xlink:href="#clock-a"/>
</svg>
