<svg xmlns="http://www.w3.org/2000/svg" xmlns:xlink="http://www.w3.org/1999/xlink" width="16" height="16" viewBox="0 0 16 16">
  <defs>
    <path id="copy-a" d="M13,5.2 L7.15,5.2 C6.045,5.2 5.2,6.045 5.2,7.15 L5.2,13 C5.2,14.105 6.045,14.95 7.15,14.95 L13,14.95 C14.105,14.95 14.95,14.105 14.95,13 L14.95,7.15 C14.95,6.045 14.105,5.2 13,5.2 Z M13.65,13 C13.65,13.39 13.39,13.65 13,13.65 L7.15,13.65 C6.76,13.65 6.5,13.39 6.5,13 L6.5,7.15 C6.5,6.76 6.76,6.5 7.15,6.5 L13,6.5 C13.39,6.5 13.65,6.76 13.65,7.15 L13.65,13 Z M3.9,9.75 C3.9,10.14 3.64,10.4 3.25,10.4 L2.6,10.4 C1.495,10.4 0.65,9.555 0.65,8.45 L0.65,2.6 C0.65,1.495 1.495,0.65 2.6,0.65 L8.45,0.65 C9.555,0.65 10.4,1.495 10.4,2.6 L10.4,3.25 C10.4,3.64 10.14,3.9 9.75,3.9 C9.36,3.9 9.1,3.64 9.1,3.25 L9.1,2.6 C9.1,2.21 8.84,1.95 8.45,1.95 L2.6,1.95 C2.21,1.95 1.95,2.21 1.95,2.6 L1.95,8.45 C1.95,8.84 2.21,9.1 2.6,9.1 L3.25,9.1 C3.64,9.1 3.9,9.36 3.9,9.75 Z"/>
  </defs>
  <use xlink:href="#copy-a"/>
</svg>
