<svg xmlns="http://www.w3.org/2000/svg" xmlns:xlink="http://www.w3.org/1999/xlink" width="16" height="16" viewBox="0 0 16 16">
  <defs>
    <path id="corner-down-right-a" d="M13.455,10.205 L10.205,13.455 C10.075,13.585 9.945,13.65 9.75,13.65 C9.555,13.65 9.425,13.585 9.295,13.455 C9.035,13.195 9.035,12.805 9.295,12.545 L11.44,10.4 L5.2,10.4 C3.38,10.4 1.95,8.97 1.95,7.15 L1.95,2.6 C1.95,2.21 2.21,1.95 2.6,1.95 C2.99,1.95 3.25,2.21 3.25,2.6 L3.25,7.15 C3.25,8.255 4.095,9.1 5.2,9.1 L11.44,9.1 L9.295,6.955 C9.035,6.695 9.035,6.305 9.295,6.045 C9.555,5.785 9.945,5.785 10.205,6.045 L13.455,9.295 C13.52,9.36 13.585,9.425 13.585,9.49 C13.65,9.62 13.65,9.815 13.585,10.01 C13.585,10.075 13.52,10.14 13.455,10.205 Z"/>
  </defs>
  <use xlink:href="#corner-down-right-a"/>
</svg>
