<svg xmlns="http://www.w3.org/2000/svg" xmlns:xlink="http://www.w3.org/1999/xlink" width="16" height="16" viewBox="0 0 16 16">
  <defs>
    <path id="corner-up-left-a" d="M13.63375,8.45 L13.63375,13 C13.63375,13.39 13.37375,13.65 12.98375,13.65 C12.59375,13.65 12.33375,13.39 12.33375,13 L12.33375,8.45 C12.33375,7.345 11.48875,6.5 10.38375,6.5 L4.14375,6.5 L6.28875,8.645 C6.54875,8.905 6.54875,9.295 6.28875,9.555 C6.15875,9.685 6.02875,9.75 5.83375,9.75 C5.63875,9.75 5.50875,9.685 5.37875,9.555 L2.12875,6.305 C2.06375,6.24 1.99875,6.175 1.99875,6.11 C1.93375,5.915 1.93375,5.785 1.99875,5.59 C2.06375,5.525 2.06375,5.46 2.12875,5.395 L5.37875,2.145 C5.63875,1.885 6.02875,1.885 6.28875,2.145 C6.54875,2.405 6.54875,2.795 6.28875,3.055 L4.14375,5.2 L10.38375,5.2 C12.20375,5.2 13.63375,6.63 13.63375,8.45 Z"/>
  </defs>
  <use xlink:href="#corner-up-left-a"/>
</svg>
