<svg xmlns="http://www.w3.org/2000/svg" xmlns:xlink="http://www.w3.org/1999/xlink" width="16" height="16" viewBox="0 0 16 16">
  <defs>
    <path id="download-cloud-a" d="M10.7901187,10.5950398 C11.0473991,10.8550398 11.0473991,11.2450398 10.7901187,11.5050398 L8.21731511,14.1050398 C8.15299502,14.1700398 8.08867493,14.2350398 8.02435484,14.2350398 C7.96003475,14.3000398 7.83139457,14.3000398 7.76707448,14.3000398 C7.7027544,14.3000398 7.57411422,14.3000398 7.50979413,14.2350398 C7.44547404,14.1700398 7.38115395,14.1700398 7.31683386,14.1050398 L4.74403027,11.5050398 C4.48674992,11.2450398 4.48674992,10.8550398 4.74403027,10.5950398 C5.00131063,10.3350398 5.38723117,10.3350398 5.64451153,10.5950398 L7.12387359,12.0900398 L7.12387359,7.80003985 C7.12387359,7.41003985 7.38115395,7.15003985 7.76707448,7.15003985 C8.15299502,7.15003985 8.41027538,7.41003985 8.41027538,7.80003985 L8.41027538,12.0900398 L9.88963744,10.5950398 C10.1469178,10.3350398 10.5328383,10.3350398 10.7901187,10.5950398 Z M14.7779642,6.82503985 C14.0704433,5.85003985 12.9126817,5.20003985 11.6262799,5.20003985 C11.6262799,5.20003985 11.6262799,5.20003985 11.6262799,5.20003985 L11.3046794,5.20003985 C10.3398781,2.34003985 7.31683386,0.715039846 4.42242983,1.49503985 C2.87874768,1.88503985 1.65666597,2.79503985 0.82050481,4.16003985 C0.0486637349,5.52503985 -0.208616623,7.08503985 0.177303914,8.58003985 C0.434584272,9.49003985 0.82050481,10.3350398 1.46370571,10.9850398 C1.72098606,11.2450398 2.1069066,11.3100398 2.36418696,11.0500398 C2.62146732,10.7900398 2.68578741,10.4000398 2.42850705,10.1400398 C1.97826642,9.62003985 1.59234588,8.97003985 1.46370571,8.25503985 C1.14210526,7.08503985 1.33506553,5.85003985 1.97826642,4.81003985 C2.62146732,3.77003985 3.58626866,2.99003985 4.74403027,2.73003985 C7.12387359,2.08003985 9.63235708,3.57503985 10.2112379,5.98003985 C10.275558,6.24003985 10.5328383,6.50003985 10.8544388,6.50003985 L11.6262799,6.50003985 C11.6262799,6.50003985 11.6262799,6.50003985 11.6262799,6.50003985 C12.462441,6.50003985 13.2342821,6.89003985 13.7488428,7.60503985 C14.1347634,8.19003985 14.3277236,8.84003985 14.1990834,9.55503985 C14.0704433,10.2700398 13.6845227,10.8550398 13.169962,11.2450398 C12.8483616,11.4400398 12.7840415,11.8300398 13.0413218,12.1550398 C13.169962,12.3500398 13.3629223,12.4150398 13.5558825,12.4150398 C13.6845227,12.4150398 13.8131629,12.3500398 13.9418031,12.2850398 C14.7779642,11.7000398 15.3568451,10.7900398 15.5498053,9.75003985 C15.7427656,8.71003985 15.3568451,7.73503985 14.7779642,6.82503985 Z"/>
  </defs>
  <use xlink:href="#download-cloud-a"/>
</svg>
