<svg xmlns="http://www.w3.org/2000/svg" xmlns:xlink="http://www.w3.org/1999/xlink" width="16" height="16" viewBox="0 0 16 16">
  <defs>
    <path id="download-a" d="M14.3,11.05 L14.3,13 C14.3,14.105 13.455,14.95 12.35,14.95 L3.25,14.95 C2.145,14.95 1.3,14.105 1.3,13 L1.3,11.05 C1.3,10.66 1.56,10.4 1.95,10.4 C2.34,10.4 2.6,10.66 2.6,11.05 L2.6,13 C2.6,13.39 2.86,13.65 3.25,13.65 L12.35,13.65 C12.74,13.65 13,13.39 13,13 L13,11.05 C13,10.66 13.26,10.4 13.65,10.4 C14.04,10.4 14.3,10.66 14.3,11.05 Z M7.345,10.855 C7.41,10.92 7.475,10.985 7.54,10.985 C7.605,11.05 7.735,11.05 7.8,11.05 C7.865,11.05 7.995,11.05 8.06,10.985 C8.125,10.92 8.19,10.92 8.255,10.855 L10.855,8.255 C11.115,7.995 11.115,7.605 10.855,7.345 C10.595,7.085 10.205,7.085 9.945,7.345 L8.45,8.84 L8.45,1.3 C8.45,0.91 8.19,0.65 7.8,0.65 C7.41,0.65 7.15,0.91 7.15,1.3 L7.15,8.84 L5.655,7.345 C5.395,7.085 5.005,7.085 4.745,7.345 C4.485,7.605 4.485,7.995 4.745,8.255 L7.345,10.855 Z"/>
  </defs>
  <use xlink:href="#download-a"/>
</svg>
