<svg xmlns="http://www.w3.org/2000/svg" xmlns:xlink="http://www.w3.org/1999/xlink" width="16" height="16" viewBox="0 0 16 16">
  <defs>
    <path id="edit-a" d="M13.65,9.555 L13.65,13 C13.65,14.105 12.805,14.95 11.7,14.95 L2.6,14.95 C1.495,14.95 0.65,14.105 0.65,13 L0.65,3.9 C0.65,2.795 1.495,1.95 2.6,1.95 L6.045,1.95 C6.435,1.95 6.695,2.21 6.695,2.6 C6.695,2.99 6.435,3.25 6.045,3.25 L2.6,3.25 C2.21,3.25 1.95,3.51 1.95,3.9 L1.95,13 C1.95,13.39 2.21,13.65 2.6,13.65 L11.7,13.65 C12.09,13.65 12.35,13.39 12.35,13 L12.35,9.555 C12.35,9.165 12.61,8.905 13,8.905 C13.39,8.905 13.65,9.165 13.65,9.555 Z M14.755,4.355 L8.255,10.855 C8.125,10.985 7.995,11.05 7.8,11.05 L5.2,11.05 C4.81,11.05 4.55,10.79 4.55,10.4 L4.55,7.8 C4.55,7.605 4.615,7.475 4.745,7.345 L11.245,0.845 C11.505,0.585 11.895,0.585 12.155,0.845 L14.755,3.445 C15.015,3.705 15.015,4.095 14.755,4.355 Z M13.39,3.9 L11.7,2.21 L5.85,8.06 L5.85,9.75 L7.54,9.75 L13.39,3.9 Z"/>
  </defs>
  <use xlink:href="#edit-a"/>
</svg>
