<svg xmlns="http://www.w3.org/2000/svg" xmlns:xlink="http://www.w3.org/1999/xlink" width="16" height="16" viewBox="0 0 16 16">
  <defs>
    <path id="external-link-a" d="M12.35,8.45 L12.35,12.35 C12.35,13.455 11.505,14.3 10.4,14.3 L3.25,14.3 C2.145,14.3 1.3,13.455 1.3,12.35 L1.3,5.2 C1.3,4.095 2.145,3.25 3.25,3.25 L7.15,3.25 C7.54,3.25 7.8,3.51 7.8,3.9 C7.8,4.29 7.54,4.55 7.15,4.55 L3.25,4.55 C2.86,4.55 2.6,4.81 2.6,5.2 L2.6,12.35 C2.6,12.74 2.86,13 3.25,13 L10.4,13 C10.79,13 11.05,12.74 11.05,12.35 L11.05,8.45 C11.05,8.06 11.31,7.8 11.7,7.8 C12.09,7.8 12.35,8.06 12.35,8.45 Z M14.235,1.69 C14.17,1.56 14.04,1.43 13.91,1.365 C13.845,1.3 13.715,1.3 13.65,1.3 L9.75,1.3 C9.36,1.3 9.1,1.56 9.1,1.95 C9.1,2.34 9.36,2.6 9.75,2.6 L12.09,2.6 L6.045,8.645 C5.785,8.905 5.785,9.295 6.045,9.555 C6.175,9.685 6.305,9.75 6.5,9.75 C6.695,9.75 6.825,9.685 6.955,9.555 L13,3.51 L13,5.85 C13,6.24 13.26,6.5 13.65,6.5 C14.04,6.5 14.3,6.24 14.3,5.85 L14.3,1.95 C14.3,1.885 14.3,1.755 14.235,1.69 Z"/>
  </defs>
  <use xlink:href="#external-link-a"/>
</svg>
