<svg xmlns="http://www.w3.org/2000/svg" xmlns:xlink="http://www.w3.org/1999/xlink" width="16" height="16" viewBox="0 0 16 16">
  <defs>
    <path id="eye-a" d="M15.5511482,7.54 C15.4208768,7.28 12.6851775,1.95 7.8,1.95 C2.91482255,1.95 0.179123173,7.28 0.0488517745,7.54 C-0.0162839248,7.735 -0.0162839248,7.93 0.0488517745,8.125 C0.179123173,8.32 2.91482255,13.65 7.8,13.65 C12.6851775,13.65 15.4208768,8.32 15.5511482,8.06 C15.6162839,7.93 15.6162839,7.67 15.5511482,7.54 Z M7.8,12.35 C4.28267223,12.35 2.00292276,8.84 1.35156576,7.8 C1.93778706,6.76 4.28267223,3.25 7.8,3.25 C11.3173278,3.25 13.5970772,6.76 14.2484342,7.8 C13.5970772,8.84 11.3173278,12.35 7.8,12.35 Z M7.8,5.2 C6.36701461,5.2 5.19457203,6.37 5.19457203,7.8 C5.19457203,9.23 6.36701461,10.4 7.8,10.4 C9.23298539,10.4 10.405428,9.23 10.405428,7.8 C10.405428,6.37 9.23298539,5.2 7.8,5.2 Z M7.8,9.1 C7.08350731,9.1 6.49728601,8.515 6.49728601,7.8 C6.49728601,7.085 7.08350731,6.5 7.8,6.5 C8.51649269,6.5 9.10271399,7.085 9.10271399,7.8 C9.10271399,8.515 8.51649269,9.1 7.8,9.1 Z"/>
  </defs>
  <use xlink:href="#eye-a"/>
</svg>
