<svg xmlns="http://www.w3.org/2000/svg" xmlns:xlink="http://www.w3.org/1999/xlink" width="16" height="16" viewBox="0 0 16 16">
  <defs>
    <path id="folder-a" d="M13,3.25 L7.475,3.25 L6.37,1.56 C6.24,1.43 6.045,1.3 5.85,1.3 L2.6,1.3 C1.495,1.3 0.65,2.145 0.65,3.25 L0.65,12.35 C0.65,13.455 1.495,14.3 2.6,14.3 L13,14.3 C14.105,14.3 14.95,13.455 14.95,12.35 L14.95,5.2 C14.95,4.095 14.105,3.25 13,3.25 Z M13.65,12.35 C13.65,12.74 13.39,13 13,13 L2.6,13 C2.21,13 1.95,12.74 1.95,12.35 L1.95,3.25 C1.95,2.86 2.21,2.6 2.6,2.6 L5.525,2.6 L6.63,4.29 C6.76,4.42 6.955,4.55 7.15,4.55 L13,4.55 C13.39,4.55 13.65,4.81 13.65,5.2 L13.65,12.35 Z"/>
  </defs>
  <use xlink:href="#folder-a"/>
</svg>
