<svg xmlns="http://www.w3.org/2000/svg" xmlns:xlink="http://www.w3.org/1999/xlink" width="16" height="16" viewBox="0 0 16 16">
  <defs>
    <path id="help-circle-a" d="M10.335,6.5 C10.335,8.19 8.19,8.97 7.93,9.035 C7.865,9.1 7.8,9.1 7.735,9.1 C7.475,9.1 7.215,8.905 7.15,8.645 C7.02,8.32 7.215,7.93 7.54,7.8 C7.93,7.67 9.035,7.15 9.035,6.435 C9.035,5.85 8.71,5.395 8.19,5.2 C7.54,4.94 6.76,5.33 6.5,5.98 C6.37,6.305 5.98,6.5 5.655,6.37 C5.33,6.37 5.2,5.98 5.265,5.655 C5.72,4.29 7.215,3.575 8.58,4.095 C9.62,4.42 10.335,5.395 10.335,6.5 Z M14.95,7.8 C14.95,11.765 11.765,14.95 7.8,14.95 C3.835,14.95 0.65,11.765 0.65,7.8 C0.65,3.835 3.835,0.65 7.8,0.65 C11.765,0.65 14.95,3.835 14.95,7.8 Z M13.65,7.8 C13.65,4.55 11.05,1.95 7.8,1.95 C4.55,1.95 1.95,4.55 1.95,7.8 C1.95,11.05 4.55,13.65 7.8,13.65 C11.05,13.65 13.65,11.05 13.65,7.8 Z M8.255,10.595 C8.255,10.595 8.19,10.53 8.125,10.53 C8.06,10.53 8.06,10.465 7.995,10.465 C7.93,10.465 7.93,10.465 7.865,10.4 C7.735,10.4 7.605,10.4 7.475,10.465 C7.41,10.465 7.345,10.53 7.28,10.595 C7.215,10.66 7.15,10.725 7.15,10.79 C7.15,10.855 7.085,10.92 7.085,11.05 C7.085,11.245 7.15,11.375 7.28,11.505 C7.41,11.635 7.54,11.7 7.735,11.7 C7.93,11.7 8.06,11.635 8.19,11.505 C8.32,11.375 8.385,11.245 8.385,11.05 C8.385,10.985 8.385,10.855 8.32,10.79 C8.385,10.725 8.32,10.66 8.255,10.595 Z"/>
  </defs>
  <use xlink:href="#help-circle-a"/>
</svg>
