<svg xmlns="http://www.w3.org/2000/svg" xmlns:xlink="http://www.w3.org/1999/xlink" width="16" height="16" viewBox="0 0 16 16">
  <defs>
    <path id="key---custom-a" d="M4.98533967,6.21724894e-15 C6.05118342,0.003125 7.05443342,0.420875 7.81005842,1.1765 C8.56568342,1.9319375 8.98324592,2.9351875 8.98638888,4.00103125 C8.98893733,4.86766739 8.71717601,5.69146138 8.21177569,6.37356542 L14.6360272,12.7971875 C14.7466834,12.9078438 14.8088709,13.0581563 14.8084976,13.2147188 C14.8080897,13.3712813 14.7454959,13.5214063 14.6342459,13.6314688 L14.6342459,13.6314688 L12.4170272,15.8290938 C12.3022459,15.9432813 12.1523397,16 12.0026209,16 C11.8511522,16 11.6996834,15.9419063 11.5844959,15.82575 C11.3557147,15.5948125 11.3572772,15.2221875 11.5882147,14.9932188 L11.5882147,14.9932188 L13.3855584,13.2117813 L12.1,11.926 L10.4566522,13.5710313 C10.3646522,13.6630063 10.2498122,13.7182013 10.1305002,13.7366003 L10.0404647,13.7435 C9.88974592,13.7435 9.73924592,13.686 9.62427717,13.5710313 C9.39430842,13.3412813 9.39430842,12.9684688 9.62427717,12.7386875 L9.62427717,12.7386875 L11.268,11.094 L7.38021977,7.20661359 C6.75958309,7.66825821 6.02121089,7.93620106 5.23987335,7.97967998 L5.01321467,7.98596875 L5.01321467,7.98596875 L5.00124592,7.98596875 C3.93540217,7.98284375 2.93233967,7.56509375 2.17652717,6.80946875 C1.42090217,6.05403125 1.00315217,5.05078125 1.00001352,3.9849375 C0.997277166,2.91771875 1.41012092,1.9154375 2.16299592,1.1625625 C2.91293342,0.41265625 3.91068342,6.21724894e-15 4.97337092,6.21724894e-15 L4.97337092,6.21724894e-15 Z M4.98180842,1.1773125 C4.22518342,1.1773125 3.52293342,1.4675 2.99530842,1.9949375 C2.46593342,2.52453125 2.17552717,3.2299375 2.17767149,3.9814375 C2.17983967,4.73409375 2.47515217,5.44284375 3.00924592,5.9769375 C3.54333967,6.51121875 4.25205842,6.80653125 5.00474592,6.8086875 L5.00474592,6.8086875 C5.76137092,6.8086875 6.46343342,6.5185 6.99105842,5.9910625 C7.52065217,5.46146875 7.81105842,4.7560625 7.80888318,4.0045625 C7.80671467,3.25190625 7.51140217,2.54315625 6.97730842,2.0090625 C6.44321467,1.47478125 5.73449592,1.17946875 4.98180842,1.1773125 L4.98180842,1.1773125 Z"/>
  </defs>
  <use transform="matrix(-1 0 0 1 15.809 0)" xlink:href="#key---custom-a"/>
</svg>
