<svg xmlns="http://www.w3.org/2000/svg" xmlns:xlink="http://www.w3.org/1999/xlink" width="16" height="16" viewBox="0 0 16 16">
  <defs>
    <path id="list-a" d="M4.55,3.90263369 C4.55,3.51263369 4.81,3.25263369 5.2,3.25263369 L13.65,3.25263369 C14.04,3.25263369 14.3,3.51263369 14.3,3.90263369 C14.3,4.29263369 14.04,4.55263369 13.65,4.55263369 L5.2,4.55263369 C4.81,4.55263369 4.55,4.29263369 4.55,3.90263369 Z M13.65,7.15263369 L5.2,7.15263369 C4.81,7.15263369 4.55,7.41263369 4.55,7.80263369 C4.55,8.19263369 4.81,8.45263369 5.2,8.45263369 L13.65,8.45263369 C14.04,8.45263369 14.3,8.19263369 14.3,7.80263369 C14.3,7.41263369 14.04,7.15263369 13.65,7.15263369 Z M13.65,11.0526337 L5.2,11.0526337 C4.81,11.0526337 4.55,11.3126337 4.55,11.7026337 C4.55,12.0926337 4.81,12.3526337 5.2,12.3526337 L13.65,12.3526337 C14.04,12.3526337 14.3,12.0926337 14.3,11.7026337 C14.3,11.3126337 14.04,11.0526337 13.65,11.0526337 Z M2.21,3.31763369 C1.95,3.18763369 1.69,3.25263369 1.495,3.44763369 C1.43,3.51263369 1.365,3.57763369 1.365,3.64263369 C1.3,3.70763369 1.3,3.83763369 1.3,3.90263369 C1.3,3.96763369 1.3,4.09763369 1.365,4.16263369 C1.43,4.22763369 1.43,4.29263369 1.495,4.35763369 C1.495,4.35763369 1.56,4.42263369 1.56,4.42263369 C1.625,4.42263369 1.625,4.48763369 1.69,4.48763369 C1.755,4.48763369 1.755,4.48763369 1.82,4.55263369 C1.885,4.55263369 1.885,4.55263369 1.95,4.55263369 C2.145,4.55263369 2.275,4.48763369 2.405,4.35763369 C2.535,4.22763369 2.6,4.09763369 2.6,3.90263369 C2.6,3.70763369 2.535,3.57763369 2.405,3.44763369 C2.34,3.38263369 2.275,3.31763369 2.21,3.31763369 Z M2.535,7.54263369 C2.535,7.47763369 2.47,7.47763369 2.47,7.41263369 C2.47,7.34763369 2.405,7.34763369 2.405,7.34763369 C2.21,7.15263369 1.95,7.08763369 1.69,7.21763369 C1.625,7.28263369 1.56,7.28263369 1.495,7.34763369 C1.495,7.34763369 1.43,7.41263369 1.43,7.41263369 C1.43,7.47763369 1.365,7.47763369 1.365,7.54263369 C1.365,7.60763369 1.365,7.60763369 1.3,7.67263369 C1.3,7.73763369 1.3,7.73763369 1.3,7.80263369 C1.3,7.99763369 1.365,8.12763369 1.495,8.25763369 C1.625,8.38763369 1.755,8.45263369 1.95,8.45263369 C2.145,8.45263369 2.275,8.38763369 2.405,8.25763369 C2.535,8.12763369 2.6,7.99763369 2.6,7.80263369 C2.6,7.73763369 2.6,7.73763369 2.6,7.67263369 C2.6,7.60763369 2.535,7.60763369 2.535,7.54263369 Z M1.495,11.2476337 C1.43,11.3126337 1.365,11.3776337 1.365,11.4426337 C1.3,11.5076337 1.3,11.6376337 1.3,11.7026337 C1.3,11.8976337 1.365,12.0276337 1.495,12.1576337 C1.625,12.2876337 1.755,12.3526337 1.95,12.3526337 C2.145,12.3526337 2.275,12.2876337 2.405,12.1576337 C2.535,12.0276337 2.6,11.8976337 2.6,11.7026337 C2.6,11.5076337 2.535,11.3776337 2.405,11.2476337 C2.145,10.9876337 1.755,10.9876337 1.495,11.2476337 Z"/>
  </defs>
  <use xlink:href="#list-a"/>
</svg>
