<svg xmlns="http://www.w3.org/2000/svg" xmlns:xlink="http://www.w3.org/1999/xlink" width="16" height="16" viewBox="0 0 16 16">
  <defs>
    <path id="lock-a" d="M12.35,6.5 L11.7,6.5 L11.7,4.55 C11.7,2.405 9.945,0.65 7.8,0.65 C5.655,0.65 3.9,2.405 3.9,4.55 L3.9,6.5 L3.25,6.5 C2.145,6.5 1.3,7.345 1.3,8.45 L1.3,13 C1.3,14.105 2.145,14.95 3.25,14.95 L12.35,14.95 C13.455,14.95 14.3,14.105 14.3,13 L14.3,8.45 C14.3,7.345 13.455,6.5 12.35,6.5 Z M5.2,4.55 C5.2,3.12 6.37,1.95 7.8,1.95 C9.23,1.95 10.4,3.12 10.4,4.55 L10.4,6.5 L5.2,6.5 L5.2,4.55 Z M13,13 C13,13.39 12.74,13.65 12.35,13.65 L3.25,13.65 C2.86,13.65 2.6,13.39 2.6,13 L2.6,8.45 C2.6,8.06 2.86,7.8 3.25,7.8 L12.35,7.8 C12.74,7.8 13,8.06 13,8.45 L13,13 Z"/>
  </defs>
  <use xlink:href="#lock-a"/>
</svg>
