<svg xmlns="http://www.w3.org/2000/svg" xmlns:xlink="http://www.w3.org/1999/xlink" width="16" height="16" viewBox="0 0 16 16">
  <defs>
    <path id="message-square-a" d="M12.35,1.3 L3.25,1.3 C2.145,1.3 1.3,2.145 1.3,3.25 L1.3,13.65 C1.3,13.91 1.43,14.17 1.69,14.235 C1.755,14.3 1.885,14.3 1.95,14.3 C2.145,14.3 2.275,14.235 2.405,14.105 L4.81,11.7 L12.35,11.7 C13.455,11.7 14.3,10.855 14.3,9.75 L14.3,3.25 C14.3,2.145 13.455,1.3 12.35,1.3 Z M13,9.75 C13,10.14 12.74,10.4 12.35,10.4 L4.55,10.4 C4.355,10.4 4.225,10.465 4.095,10.595 L2.6,12.09 L2.6,3.25 C2.6,2.86 2.86,2.6 3.25,2.6 L12.35,2.6 C12.74,2.6 13,2.86 13,3.25 L13,9.75 Z"/>
  </defs>
  <use xlink:href="#message-square-a"/>
</svg>
