<svg xmlns="http://www.w3.org/2000/svg" xmlns:xlink="http://www.w3.org/1999/xlink" width="16" height="16" viewBox="0 0 16 16">
  <defs>
    <path id="pause-circle-a" d="M7.8,0.65 C3.835,0.65 0.65,3.835 0.65,7.8 C0.65,11.765 3.835,14.95 7.8,14.95 C11.765,14.95 14.95,11.765 14.95,7.8 C14.95,3.835 11.765,0.65 7.8,0.65 Z M7.8,13.65 C4.55,13.65 1.95,11.05 1.95,7.8 C1.95,4.55 4.55,1.95 7.8,1.95 C11.05,1.95 13.65,4.55 13.65,7.8 C13.65,11.05 11.05,13.65 7.8,13.65 Z M7.15,5.85 L7.15,9.75 C7.15,10.14 6.89,10.4 6.5,10.4 C6.11,10.4 5.85,10.14 5.85,9.75 L5.85,5.85 C5.85,5.46 6.11,5.2 6.5,5.2 C6.89,5.2 7.15,5.46 7.15,5.85 Z M9.75,5.85 L9.75,9.75 C9.75,10.14 9.49,10.4 9.1,10.4 C8.71,10.4 8.45,10.14 8.45,9.75 L8.45,5.85 C8.45,5.46 8.71,5.2 9.1,5.2 C9.49,5.2 9.75,5.46 9.75,5.85 Z"/>
  </defs>
  <use xlink:href="#pause-circle-a"/>
</svg>
