<svg xmlns="http://www.w3.org/2000/svg" xmlns:xlink="http://www.w3.org/1999/xlink" width="16" height="16" viewBox="0 0 16 16">
  <defs>
    <path id="plus-a" d="M13,7.8 C13,8.19 12.74,8.45 12.35,8.45 L8.45,8.45 L8.45,12.35 C8.45,12.74 8.19,13 7.8,13 C7.41,13 7.15,12.74 7.15,12.35 L7.15,8.45 L3.25,8.45 C2.86,8.45 2.6,8.19 2.6,7.8 C2.6,7.41 2.86,7.15 3.25,7.15 L7.15,7.15 L7.15,3.25 C7.15,2.86 7.41,2.6 7.8,2.6 C8.19,2.6 8.45,2.86 8.45,3.25 L8.45,7.15 L12.35,7.15 C12.74,7.15 13,7.41 13,7.8 Z"/>
  </defs>
  <use xlink:href="#plus-a"/>
</svg>
