<svg xmlns="http://www.w3.org/2000/svg" xmlns:xlink="http://www.w3.org/1999/xlink" width="16" height="16" viewBox="0 0 16 16">
  <defs>
    <path id="plus-circle-a" d="M7.8,0.65 C3.835,0.65 0.65,3.835 0.65,7.8 C0.65,11.765 3.835,14.95 7.8,14.95 C11.765,14.95 14.95,11.765 14.95,7.8 C14.95,3.835 11.765,0.65 7.8,0.65 Z M7.8,13.65 C4.55,13.65 1.95,11.05 1.95,7.8 C1.95,4.55 4.55,1.95 7.8,1.95 C11.05,1.95 13.65,4.55 13.65,7.8 C13.65,11.05 11.05,13.65 7.8,13.65 Z M11.05,7.8 C11.05,8.19 10.79,8.45 10.4,8.45 L8.45,8.45 L8.45,10.4 C8.45,10.79 8.19,11.05 7.8,11.05 C7.41,11.05 7.15,10.79 7.15,10.4 L7.15,8.45 L5.2,8.45 C4.81,8.45 4.55,8.19 4.55,7.8 C4.55,7.41 4.81,7.15 5.2,7.15 L7.15,7.15 L7.15,5.2 C7.15,4.81 7.41,4.55 7.8,4.55 C8.19,4.55 8.45,4.81 8.45,5.2 L8.45,7.15 L10.4,7.15 C10.79,7.15 11.05,7.41 11.05,7.8 Z"/>
  </defs>
  <use xlink:href="#plus-circle-a"/>
</svg>
