<svg xmlns="http://www.w3.org/2000/svg" xmlns:xlink="http://www.w3.org/1999/xlink" width="16" height="16" viewBox="0 0 16 16">
  <defs>
    <path id="refresh-ccw-a" d="M0.323651452,7.07300013 C0.323651452,7.07300013 0.323651452,7.07300013 0.323651452,7.07300013 C0.258921162,7.00789202 0.194190871,7.00789202 0.129460581,6.94278392 C0.129460581,6.94278392 0.129460581,6.94278392 0.129460581,6.94278392 C0.129460581,6.94278392 0.129460581,6.87767581 0.0647302905,6.87767581 C0.0647302905,6.8125677 0,6.8125677 0,6.7474596 C0,6.68235149 0,6.61724338 0,6.61724338 C0,6.61724338 0,6.55213528 0,6.55213528 L0,2.58054075 C0,2.18989211 0.258921162,1.92945968 0.647302905,1.92945968 C1.03568465,1.92945968 1.29460581,2.18989211 1.29460581,2.58054075 L1.29460581,4.98954071 L3.23651452,3.16651371 C3.88381743,2.51543265 4.7253112,1.99456779 5.63153527,1.66902726 C7.24979253,1.08305429 8.99751037,1.21327051 10.5510373,1.92945968 C12.1045643,2.71075697 13.2697095,4.0129191 13.8522822,5.64062178 C13.9817427,5.96616231 13.7875519,6.35681095 13.4639004,6.48702717 C13.140249,6.61724338 12.7518672,6.42191906 12.6224066,6.09637853 C12.1692946,4.79421639 11.1983402,3.75248668 9.96846473,3.10140561 C8.73858921,2.51543265 7.31452282,2.45032454 6.01991701,2.90608129 C5.30788382,3.16651371 4.59585062,3.55716236 4.0780083,4.14313532 L2.20082988,5.8359461 L4.46639004,5.8359461 C4.85477178,5.8359461 5.11369295,6.09637853 5.11369295,6.48702717 C5.11369295,6.87767581 4.85477178,7.13810824 4.46639004,7.13810824 L0.582572614,7.13810824 C0.517842324,7.13810824 0.388381743,7.13810824 0.323651452,7.07300013 Z M15.4705394,8.96113523 C15.4705394,8.89602712 15.4705394,8.89602712 15.4705394,8.83091902 C15.4705394,8.76581091 15.4058091,8.76581091 15.4058091,8.7007028 C15.4058091,8.7007028 15.4058091,8.6355947 15.3410788,8.6355947 C15.3410788,8.6355947 15.3410788,8.6355947 15.3410788,8.6355947 C15.2763485,8.57048659 15.2763485,8.57048659 15.2116183,8.50537848 C15.2116183,8.50537848 15.146888,8.44027038 15.146888,8.44027038 C15.146888,8.44027038 15.0821577,8.44027038 15.0174274,8.44027038 C14.9526971,8.44027038 14.9526971,8.44027038 14.8879668,8.44027038 C14.8879668,8.44027038 14.8879668,8.44027038 14.8879668,8.44027038 L11.0041494,8.44027038 C10.6157676,8.44027038 10.3568465,8.7007028 10.3568465,9.09135145 C10.3568465,9.48200009 10.6157676,9.74243251 11.0041494,9.74243251 L13.2697095,9.74243251 L11.4572614,11.5003514 C9.45062241,13.5187027 6.14937759,13.5187027 4.14273859,11.5003514 C3.62489627,10.9794865 3.17178423,10.2632974 2.91286307,9.54710819 C2.78340249,9.22156766 2.39502075,9.02624334 2.07136929,9.15645955 C1.74771784,9.28667577 1.55352697,9.67732441 1.68298755,10.0028649 C2.006639,10.9143784 2.52448133,11.7607838 3.23651452,12.4118649 C4.53112033,13.714027 6.14937759,14.3 7.83236515,14.3 C9.5153527,14.3 11.13361,13.6489189 12.3634855,12.4118649 L14.3053942,10.5888379 L14.3053942,12.9978379 C14.3053942,13.3884865 14.5643154,13.6489189 14.9526971,13.6489189 C15.3410788,13.6489189 15.6,13.3884865 15.6,12.9978379 L15.6,9.09135145 C15.4705394,9.02624334 15.4705394,9.02624334 15.4705394,8.96113523 Z"/>
  </defs>
  <use xlink:href="#refresh-ccw-a"/>
</svg>
