<svg xmlns="http://www.w3.org/2000/svg" xmlns:xlink="http://www.w3.org/1999/xlink" width="16" height="16" viewBox="0 0 16 16">
  <defs>
    <path id="refresh-cw-a" d="M15.534728,6.75950304 C15.534728,6.82450733 15.4694561,6.82450733 15.4694561,6.88951161 C15.4694561,6.88951161 15.4694561,6.95451589 15.4041841,6.95451589 C15.4041841,6.95451589 15.4041841,6.95451589 15.4041841,6.95451589 C15.3389121,7.01952018 15.2736402,7.08452446 15.2083682,7.08452446 C15.2083682,7.08452446 15.2083682,7.08452446 15.2083682,7.08452446 C15.1430962,7.14952875 15.0125523,7.14952875 14.9472803,7.14952875 L11.0309623,7.14952875 C10.6393305,7.14952875 10.3782427,6.88951161 10.3782427,6.4994859 C10.3782427,6.1094602 10.6393305,5.84944306 11.0309623,5.84944306 L13.3154812,5.84944306 L11.4878661,4.15933168 C10.9004184,3.57429312 10.2476987,3.18426741 9.52970711,2.92425028 C8.22426778,2.46922029 6.78828452,2.53422457 5.54811715,3.11926313 C4.24267782,3.70430169 3.32887029,4.74437023 2.87196653,6.04445592 C2.74142259,6.36947734 2.34979079,6.56449019 2.02343096,6.43448162 C1.69707113,6.36947734 1.50125523,5.97945163 1.63179916,5.65443021 C2.21924686,3.96431882 3.39414226,2.66423314 4.96066946,1.94918602 C6.52719665,1.16913461 8.28953975,1.10413032 9.92133891,1.68916888 C10.8351464,2.0141903 11.683682,2.53422457 12.3364017,3.2492717 L14.2945607,5.00438737 L14.2945607,2.59922886 C14.2945607,2.20920315 14.5556485,1.94918602 14.9472803,1.94918602 C15.3389121,1.94918602 15.6,2.20920315 15.6,2.59922886 L15.6,6.4994859 C15.6,6.4994859 15.6,6.56449019 15.6,6.56449019 C15.6,6.62949447 15.6,6.69449876 15.534728,6.75950304 Z M13.5112971,9.16466155 C13.1849372,9.03465299 12.7933054,9.22966584 12.6627615,9.55468726 C12.4016736,10.2697344 12.0100418,10.9847815 11.4225941,11.5048158 C10.5087866,12.47988 9.13807531,12.9999143 7.76736402,12.9999143 L7.76736402,12.9999143 C6.39665272,12.9999143 5.09121339,12.47988 4.04686192,11.4398115 L2.21924686,9.74970011 L4.50376569,9.74970011 C4.89539749,9.74970011 5.15648536,9.48968297 5.15648536,9.09965727 C5.15648536,8.70963157 4.89539749,8.44961443 4.50376569,8.44961443 L0.587447699,8.44961443 C0.587447699,8.44961443 0.587447699,8.44961443 0.587447699,8.44961443 C0.522175732,8.44961443 0.522175732,8.44961443 0.456903766,8.44961443 C0.391631799,8.44961443 0.391631799,8.44961443 0.326359833,8.44961443 C0.326359833,8.44961443 0.261087866,8.44961443 0.261087866,8.51461871 C0.1958159,8.51461871 0.130543933,8.579623 0.130543933,8.64462728 C0.130543933,8.64462728 0.130543933,8.64462728 0.130543933,8.64462728 C0.130543933,8.64462728 0.130543933,8.70963157 0.0652719665,8.70963157 C0.0652719665,8.77463585 0,8.77463585 0,8.83964013 C0,8.90464442 0,8.90464442 0,8.9696487 C0,8.9696487 0,9.03465299 0,9.03465299 L0,12.93491 C0,13.3249357 0.261087866,13.5849529 0.652719665,13.5849529 C1.04435146,13.5849529 1.30543933,13.3249357 1.30543933,12.93491 L1.30543933,10.5297515 L3.19832636,12.3498715 C4.37322176,13.6499572 6.00502092,14.3 7.76736402,14.3 C7.76736402,14.3 7.76736402,14.3 7.76736402,14.3 C9.52970711,14.3 11.1615063,13.6499572 12.4016736,12.4148758 C13.0543933,11.7648329 13.641841,10.9197772 13.9682008,10.0097172 C14.0334728,9.61969154 13.8376569,9.22966584 13.5112971,9.16466155 Z"/>
  </defs>
  <use xlink:href="#refresh-cw-a"/>
</svg>
