<svg xmlns="http://www.w3.org/2000/svg" xmlns:xlink="http://www.w3.org/1999/xlink" width="16" height="16" viewBox="0 0 16 16">
  <defs>
    <path id="save-a" d="M14.105,4.745 L10.855,1.495 C10.725,1.365 10.595,1.3 10.4,1.3 L3.25,1.3 C2.145,1.3 1.3,2.145 1.3,3.25 L1.3,12.35 C1.3,13.455 2.145,14.3 3.25,14.3 L12.35,14.3 C13.455,14.3 14.3,13.455 14.3,12.35 L14.3,5.2 C14.3,5.005 14.235,4.875 14.105,4.745 Z M10.4,13 L5.2,13 L5.2,9.1 L10.4,9.1 L10.4,13 Z M13,12.35 C13,12.74 12.74,13 12.35,13 L11.7,13 L11.7,8.45 C11.7,8.06 11.44,7.8 11.05,7.8 L4.55,7.8 C4.16,7.8 3.9,8.06 3.9,8.45 L3.9,13 L3.25,13 C2.86,13 2.6,12.74 2.6,12.35 L2.6,3.25 C2.6,2.86 2.86,2.6 3.25,2.6 L3.9,2.6 L3.9,5.2 C3.9,5.59 4.16,5.85 4.55,5.85 L9.75,5.85 C10.14,5.85 10.4,5.59 10.4,5.2 C10.4,4.81 10.14,4.55 9.75,4.55 L5.2,4.55 L5.2,2.6 L10.14,2.6 L13,5.46 L13,12.35 Z"/>
  </defs>
  <use xlink:href="#save-a"/>
</svg>
