<svg xmlns="http://www.w3.org/2000/svg" xmlns:xlink="http://www.w3.org/1999/xlink" width="16" height="16" viewBox="0 0 16 16">
  <defs>
    <path id="settings-a" d="M7.8,5.2 C6.37,5.2 5.2,6.37 5.2,7.8 C5.2,9.23 6.37,10.4 7.8,10.4 C9.23,10.4 10.4,9.23 10.4,7.8 C10.4,6.37 9.23,5.2 7.8,5.2 Z M7.8,9.1 C7.085,9.1 6.5,8.515 6.5,7.8 C6.5,7.085 7.085,6.5 7.8,6.5 C8.515,6.5 9.1,7.085 9.1,7.8 C9.1,8.515 8.515,9.1 7.8,9.1 Z M13.195,10.01 C13.26,9.88 13.39,9.75 13.65,9.75 C14.755,9.75 15.6,8.905 15.6,7.8 C15.6,6.695 14.755,5.85 13.65,5.85 L13.52,5.85 C13.39,5.85 13.26,5.785 13.195,5.655 C13.195,5.59 13.195,5.59 13.13,5.525 C13.065,5.395 13.065,5.2 13.26,5.005 C14.04,4.225 14.04,2.99 13.26,2.275 L13.26,2.275 C13.26,2.275 13.26,2.275 13.26,2.275 C12.87,1.885 12.415,1.69 11.895,1.69 C11.375,1.69 10.855,1.885 10.465,2.275 C10.335,2.405 10.14,2.405 10.01,2.34 C9.88,2.34 9.75,2.145 9.75,1.95 C9.75,0.845 8.905,0 7.8,0 C6.695,0 5.85,0.845 5.85,1.95 L5.85,2.08 C5.85,2.21 5.785,2.34 5.655,2.405 C5.59,2.405 5.59,2.405 5.525,2.47 C5.395,2.535 5.2,2.47 5.005,2.34 C4.225,1.56 2.99,1.56 2.275,2.34 C1.495,3.12 1.495,4.355 2.34,5.135 C2.47,5.265 2.47,5.46 2.405,5.655 C2.34,5.785 2.145,5.915 1.95,5.915 C0.845,5.915 0,6.76 0,7.865 C0,8.97 0.845,9.815 1.95,9.815 L2.08,9.815 C2.275,9.815 2.405,9.945 2.47,10.075 C2.535,10.205 2.535,10.4 2.34,10.595 C1.95,10.985 1.755,11.44 1.755,11.96 C1.755,12.48 1.95,12.935 2.34,13.325 C2.34,13.325 2.34,13.325 2.34,13.325 C3.12,14.105 4.355,14.105 5.135,13.26 C5.265,13.13 5.46,13.13 5.655,13.195 C5.85,13.26 5.915,13.39 5.915,13.65 C5.915,14.755 6.76,15.6 7.865,15.6 C8.97,15.6 9.815,14.755 9.815,13.65 L9.815,13.52 C9.815,13.325 9.945,13.195 10.075,13.13 C10.205,13.065 10.4,13.065 10.595,13.26 C11.375,14.04 12.61,14.04 13.325,13.26 C14.105,12.48 14.105,11.245 13.26,10.465 C13.195,10.335 13.13,10.14 13.195,10.01 C13.195,10.01 13.195,10.01 13.195,10.01 Z M12.025,9.49 C11.765,10.14 11.895,10.855 12.415,11.44 C12.545,11.57 12.61,11.7 12.61,11.895 C12.61,12.09 12.545,12.22 12.415,12.35 C12.285,12.48 12.155,12.545 11.96,12.545 C11.96,12.545 11.96,12.545 11.96,12.545 C11.765,12.545 11.635,12.48 11.44,12.285 C10.92,11.765 10.205,11.635 9.555,11.96 C8.905,12.22 8.515,12.87 8.515,13.52 L8.515,13.65 C8.515,14.04 8.255,14.3 7.865,14.3 C7.475,14.3 7.215,14.04 7.215,13.65 C7.215,13.65 7.215,13.585 7.215,13.585 C7.215,12.87 6.76,12.285 6.11,12.025 C5.915,11.895 5.655,11.895 5.395,11.895 C4.94,11.895 4.485,12.09 4.16,12.415 C3.9,12.675 3.51,12.675 3.25,12.415 C3.25,12.415 3.25,12.415 3.25,12.415 L3.25,12.415 C3.12,12.285 3.055,12.155 3.055,11.96 C3.055,11.765 3.12,11.635 3.315,11.44 C3.835,10.92 3.965,10.205 3.64,9.555 C3.38,8.905 2.73,8.515 2.08,8.515 L1.95,8.515 C1.56,8.515 1.3,8.255 1.3,7.865 C1.3,7.475 1.56,7.215 1.95,7.215 C1.95,7.215 2.015,7.215 2.015,7.215 C2.73,7.215 3.315,6.76 3.575,6.11 C3.835,5.46 3.705,4.745 3.185,4.16 C2.925,3.9 2.925,3.51 3.185,3.25 C3.445,2.99 3.835,2.99 4.16,3.315 C4.615,3.77 5.33,3.9 5.915,3.705 C5.98,3.705 6.045,3.705 6.11,3.64 C6.76,3.38 7.15,2.73 7.15,2.08 L7.15,1.95 C7.15,1.56 7.41,1.3 7.8,1.3 C8.19,1.3 8.45,1.56 8.45,2.015 C8.45,2.73 8.84,3.315 9.49,3.575 C10.14,3.835 10.855,3.705 11.44,3.185 C11.57,3.055 11.7,2.99 11.895,2.99 L11.895,2.99 C12.09,2.99 12.22,3.055 12.35,3.185 C12.35,3.185 12.35,3.185 12.35,3.185 C12.61,3.445 12.61,3.835 12.285,4.16 C11.83,4.615 11.7,5.33 11.895,5.915 C11.895,5.98 11.895,6.045 11.96,6.11 C12.22,6.76 12.87,7.15 13.52,7.15 L13.65,7.15 C14.04,7.15 14.3,7.41 14.3,7.8 C14.3,8.19 14.04,8.45 13.585,8.45 C12.935,8.45 12.285,8.84 12.025,9.49 Z"/>
  </defs>
  <use xlink:href="#settings-a"/>
</svg>
