<svg xmlns="http://www.w3.org/2000/svg" xmlns:xlink="http://www.w3.org/1999/xlink" width="16" height="16" viewBox="0 0 16 16">
  <defs>
    <path id="shuffle-a" d="M14.3,1.95 L14.3,5.2 C14.3,5.59 14.04,5.85 13.65,5.85 C13.26,5.85 13,5.59 13,5.2 L13,3.51 L3.055,13.455 C2.925,13.585 2.795,13.65 2.6,13.65 C2.405,13.65 2.275,13.585 2.145,13.455 C1.885,13.195 1.885,12.805 2.145,12.545 L12.09,2.6 L10.4,2.6 C10.01,2.6 9.75,2.34 9.75,1.95 C9.75,1.56 10.01,1.3 10.4,1.3 L13.65,1.3 C13.715,1.3 13.845,1.3 13.91,1.365 C14.04,1.43 14.17,1.56 14.235,1.69 C14.3,1.755 14.3,1.885 14.3,1.95 Z M13.65,9.75 C13.26,9.75 13,10.01 13,10.4 L13,12.09 L10.205,9.295 C9.945,9.035 9.555,9.035 9.295,9.295 C9.035,9.555 9.035,9.945 9.295,10.205 L12.09,13 L10.4,13 C10.01,13 9.75,13.26 9.75,13.65 C9.75,14.04 10.01,14.3 10.4,14.3 L13.65,14.3 C13.715,14.3 13.845,14.3 13.91,14.235 C14.04,14.17 14.17,14.04 14.235,13.91 C14.3,13.845 14.3,13.715 14.3,13.65 L14.3,10.4 C14.3,10.01 14.04,9.75 13.65,9.75 Z M5.395,6.305 C5.525,6.435 5.655,6.5 5.85,6.5 C6.045,6.5 6.175,6.435 6.305,6.305 C6.565,6.045 6.565,5.655 6.305,5.395 L3.055,2.145 C2.795,1.885 2.405,1.885 2.145,2.145 C1.885,2.405 1.885,2.795 2.145,3.055 L5.395,6.305 Z"/>
  </defs>
  <use xlink:href="#shuffle-a"/>
</svg>
