<svg xmlns="http://www.w3.org/2000/svg" xmlns:xlink="http://www.w3.org/1999/xlink" width="16" height="16" viewBox="0 0 16 16">
  <defs>
    <path id="star-a" d="M14.9257078,5.79291921 C14.8609287,5.53333969 14.6665912,5.40354993 14.4074745,5.33865505 L10.2616082,4.75460113 L8.38301246,0.990698118 C8.18867497,0.536433961 7.41132503,0.536433961 7.21698754,0.990698118 L5.33839185,4.68970625 L1.25730464,5.33865505 C0.998187995,5.33865505 0.80385051,5.53333969 0.674292186,5.79291921 C0.609513024,6.05249873 0.674292186,6.31207824 0.868629672,6.441868 L3.84847112,9.36213758 L3.13590034,13.5154099 C3.07112118,13.7749894 3.2006795,14.0345689 3.39501699,14.1643587 C3.58935447,14.2941484 3.84847112,14.3590433 4.10758777,14.2292536 L7.8,12.2824072 L11.4924122,14.2292536 C11.6219706,14.2292536 11.6867497,14.2292536 11.816308,14.2292536 C11.9458664,14.2292536 12.0754247,14.1643587 12.204983,14.0994638 C12.3993205,13.969674 12.5288788,13.7100945 12.4640997,13.450515 L11.7515289,9.2972427 L14.7313703,6.37697312 C14.9257078,6.24718336 14.990487,5.98760385 14.9257078,5.79291921 Z M10.585504,8.64829391 C10.4559456,8.84297855 10.3911665,9.03766319 10.3911665,9.23234782 L10.9093998,12.4121969 L8.05911665,10.9196147 C7.86477916,10.7898249 7.67044168,10.7898249 7.47610419,10.9196147 L4.62582106,12.4121969 L5.20883352,9.23234782 C5.20883352,9.03766319 5.14405436,8.84297855 5.01449604,8.64829391 L2.68244621,6.441868 L5.85662514,5.98760385 C6.05096263,5.98760385 6.24530011,5.79291921 6.37485844,5.66312945 L7.8,2.74285987 L9.22514156,5.59823457 C9.28992072,5.79291921 9.48425821,5.92270897 9.74337486,5.92270897 L12.9175538,6.37697312 L10.585504,8.64829391 Z"/>
  </defs>
  <use xlink:href="#star-a"/>
</svg>
