<svg xmlns="http://www.w3.org/2000/svg" xmlns:xlink="http://www.w3.org/1999/xlink" width="16" height="16" viewBox="0 0 16 16">
  <defs>
    <path id="trash-2-a" d="M13.65,3.25 L11.05,3.25 L11.05,2.6 C11.05,1.495 10.205,0.65 9.1,0.65 L6.5,0.65 C5.395,0.65 4.55,1.495 4.55,2.6 L4.55,3.25 L1.95,3.25 C1.56,3.25 1.3,3.51 1.3,3.9 C1.3,4.29 1.56,4.55 1.95,4.55 L2.6,4.55 L2.6,13 C2.6,14.105 3.445,14.95 4.55,14.95 L11.05,14.95 C12.155,14.95 13,14.105 13,13 L13,4.55 L13.65,4.55 C14.04,4.55 14.3,4.29 14.3,3.9 C14.3,3.51 14.04,3.25 13.65,3.25 Z M5.85,2.6 C5.85,2.21 6.11,1.95 6.5,1.95 L9.1,1.95 C9.49,1.95 9.75,2.21 9.75,2.6 L9.75,3.25 L5.85,3.25 L5.85,2.6 Z M11.7,13 C11.7,13.39 11.44,13.65 11.05,13.65 L4.55,13.65 C4.16,13.65 3.9,13.39 3.9,13 L3.9,4.55 L11.7,4.55 L11.7,13 Z M7.15,7.15 L7.15,11.05 C7.15,11.44 6.89,11.7 6.5,11.7 C6.11,11.7 5.85,11.44 5.85,11.05 L5.85,7.15 C5.85,6.76 6.11,6.5 6.5,6.5 C6.89,6.5 7.15,6.76 7.15,7.15 Z M9.75,7.15 L9.75,11.05 C9.75,11.44 9.49,11.7 9.1,11.7 C8.71,11.7 8.45,11.44 8.45,11.05 L8.45,7.15 C8.45,6.76 8.71,6.5 9.1,6.5 C9.49,6.5 9.75,6.76 9.75,7.15 Z"/>
  </defs>
  <use xlink:href="#trash-2-a"/>
</svg>
