<svg xmlns="http://www.w3.org/2000/svg" xmlns:xlink="http://www.w3.org/1999/xlink" width="16" height="16" viewBox="0 0 16 16">
  <defs>
    <path id="user-plus-a" d="M11.05,12.35 L11.05,13.65 C11.05,14.04 10.79,14.3 10.4,14.3 C10.01,14.3 9.75,14.04 9.75,13.65 L9.75,12.35 C9.75,11.245 8.905,10.4 7.8,10.4 L3.25,10.4 C2.145,10.4 1.3,11.245 1.3,12.35 L1.3,13.65 C1.3,14.04 1.04,14.3 0.65,14.3 C0.26,14.3 0,14.04 0,13.65 L0,12.35 C0,10.53 1.43,9.1 3.25,9.1 L7.8,9.1 C9.62,9.1 11.05,10.53 11.05,12.35 Z M2.275,4.55 C2.275,2.73 3.705,1.3 5.525,1.3 C7.345,1.3 8.775,2.73 8.775,4.55 C8.775,6.37 7.345,7.8 5.525,7.8 C3.705,7.8 2.275,6.37 2.275,4.55 Z M3.575,4.55 C3.575,5.655 4.42,6.5 5.525,6.5 C6.63,6.5 7.475,5.655 7.475,4.55 C7.475,3.445 6.63,2.6 5.525,2.6 C4.42,2.6 3.575,3.445 3.575,4.55 Z M14.95,6.5 L13.65,6.5 L13.65,5.2 C13.65,4.81 13.39,4.55 13,4.55 C12.61,4.55 12.35,4.81 12.35,5.2 L12.35,6.5 L11.05,6.5 C10.66,6.5 10.4,6.76 10.4,7.15 C10.4,7.54 10.66,7.8 11.05,7.8 L12.35,7.8 L12.35,9.1 C12.35,9.49 12.61,9.75 13,9.75 C13.39,9.75 13.65,9.49 13.65,9.1 L13.65,7.8 L14.95,7.8 C15.34,7.8 15.6,7.54 15.6,7.15 C15.6,6.76 15.34,6.5 14.95,6.5 Z"/>
  </defs>
  <use xlink:href="#user-plus-a"/>
</svg>
