<svg xmlns="http://www.w3.org/2000/svg" xmlns:xlink="http://www.w3.org/1999/xlink" width="16" height="16" viewBox="0 0 16 16">
  <defs>
    <path id="users-a" d="M11.746638,12.35 L11.746638,13.65 C11.746638,14.04 11.4856016,14.3 11.094047,14.3 C10.7024924,14.3 10.441456,14.04 10.441456,13.65 L10.441456,12.35 C10.441456,11.245 9.59308767,10.4 8.48368298,10.4 L3.26295499,10.4 C2.15355029,10.4 1.305182,11.245 1.305182,12.35 L1.305182,13.65 C1.305182,14.04 1.0441456,14.3 0.652590998,14.3 C0.261036399,14.3 0,14.04 0,13.65 L0,12.35 C0,10.53 1.4357002,9.1 3.26295499,9.1 L8.48368298,9.1 C10.3109378,9.1 11.746638,10.53 11.746638,12.35 Z M2.61036399,4.55 C2.61036399,2.73 4.04606419,1.3 5.87331898,1.3 C7.70057378,1.3 9.13627398,2.73 9.13627398,4.55 C9.13627398,6.37 7.70057378,7.8 5.87331898,7.8 C4.04606419,7.8 2.61036399,6.37 2.61036399,4.55 Z M3.91554599,4.55 C3.91554599,5.655 4.76391429,6.5 5.87331898,6.5 C6.98272368,6.5 7.83109198,5.655 7.83109198,4.55 C7.83109198,3.445 6.98272368,2.6 5.87331898,2.6 C4.76391429,2.6 3.91554599,3.445 3.91554599,4.55 Z M13.1823382,9.23 C12.8560427,9.165 12.4644881,9.36 12.399229,9.685 C12.3339699,10.01 12.5297472,10.4 12.8560427,10.465 C13.704411,10.66 14.2917429,11.44 14.2917429,12.35 L14.2917429,13.65 C14.2917429,14.04 14.5527793,14.3 14.9443339,14.3 C15.3358885,14.3 15.5969249,14.04 15.5969249,13.65 L15.5969249,12.35 C15.662184,10.855 14.6832975,9.555 13.1823382,9.23 Z M10.5719742,1.43 C10.2456787,1.3 9.91938317,1.495 9.78886497,1.885 C9.72360587,2.21 9.91938317,2.6 10.2456787,2.665 C11.2898243,2.925 11.9424153,3.965 11.6813789,5.07 C11.4856016,5.785 10.9635288,6.305 10.2456787,6.5 C9.91938317,6.565 9.65834677,6.955 9.78886497,7.28 C9.85412407,7.605 10.1151605,7.8 10.441456,7.8 C10.5067151,7.8 10.5719742,7.8 10.5719742,7.8 C11.746638,7.475 12.6602654,6.63 12.9213018,5.46 C13.3781155,3.64 12.3339699,1.82 10.5719742,1.43 Z"/>
  </defs>
  <use xlink:href="#users-a"/>
</svg>
