<svg xmlns="http://www.w3.org/2000/svg" xmlns:xlink="http://www.w3.org/1999/xlink" width="16" height="16" viewBox="0 0 16 16">
  <defs>
    <path id="x-square-a" d="M12.35,1.3 L3.25,1.3 C2.145,1.3 1.3,2.145 1.3,3.25 L1.3,12.35 C1.3,13.455 2.145,14.3 3.25,14.3 L12.35,14.3 C13.455,14.3 14.3,13.455 14.3,12.35 L14.3,3.25 C14.3,2.145 13.455,1.3 12.35,1.3 Z M13,12.35 C13,12.74 12.74,13 12.35,13 L3.25,13 C2.86,13 2.6,12.74 2.6,12.35 L2.6,3.25 C2.6,2.86 2.86,2.6 3.25,2.6 L12.35,2.6 C12.74,2.6 13,2.86 13,3.25 L13,12.35 Z M10.205,6.305 L8.71,7.8 L10.205,9.295 C10.465,9.555 10.465,9.945 10.205,10.205 C10.075,10.335 9.945,10.4 9.75,10.4 C9.555,10.4 9.425,10.335 9.295,10.205 L7.8,8.71 L6.305,10.205 C6.175,10.335 6.045,10.4 5.85,10.4 C5.655,10.4 5.525,10.335 5.395,10.205 C5.135,9.945 5.135,9.555 5.395,9.295 L6.89,7.8 L5.395,6.305 C5.135,6.045 5.135,5.655 5.395,5.395 C5.655,5.135 6.045,5.135 6.305,5.395 L7.8,6.89 L9.295,5.395 C9.555,5.135 9.945,5.135 10.205,5.395 C10.465,5.655 10.465,6.045 10.205,6.305 Z"/>
  </defs>
  <use xlink:href="#x-square-a"/>
</svg>
