<svg xmlns="http://www.w3.org/2000/svg" xmlns:xlink="http://www.w3.org/1999/xlink" width="16" height="16" viewBox="0 0 16 16">
  <defs>
    <path id="x-a" d="M12.155,11.245 C12.415,11.505 12.415,11.895 12.155,12.155 C12.025,12.285 11.895,12.35 11.7,12.35 C11.505,12.35 11.375,12.285 11.245,12.155 L7.8,8.71 L4.355,12.155 C4.225,12.285 4.095,12.35 3.9,12.35 C3.705,12.35 3.575,12.285 3.445,12.155 C3.185,11.895 3.185,11.505 3.445,11.245 L6.89,7.8 L3.445,4.355 C3.185,4.095 3.185,3.705 3.445,3.445 C3.705,3.185 4.095,3.185 4.355,3.445 L7.8,6.89 L11.245,3.445 C11.505,3.185 11.895,3.185 12.155,3.445 C12.415,3.705 12.415,4.095 12.155,4.355 L8.71,7.8 L12.155,11.245 Z"/>
  </defs>
  <use xlink:href="#x-a"/>
</svg>
